<svg width="14" height="14" viewBox="0 0 14 14" fill="none" xmlns="http://www.w3.org/2000/svg">
<path d="M12.4223 6.62943C12.4223 6.38278 12.3207 6.14338 12.1539 5.96927L11.6098 5.42519C11.4357 5.25834 11.1963 5.15677 10.9496 5.15677C10.703 5.15677 10.4636 5.25834 10.2967 5.42519L8.16392 7.558V2.45086C8.16392 1.94305 7.74316 1.52229 7.23535 1.52229H6.30678C5.79897 1.52229 5.37821 1.94305 5.37821 2.45086V7.558L3.2454 5.42519C3.07854 5.25834 2.83915 5.15677 2.59249 5.15677C2.34584 5.15677 2.10645 5.25834 1.93234 5.42519L1.39551 5.96927C1.2214 6.14338 1.11984 6.38278 1.11984 6.62943C1.11984 6.87608 1.2214 7.11548 1.39551 7.28233L6.11816 12.0122C6.28502 12.1791 6.52441 12.2807 6.77107 12.2807C7.01772 12.2807 7.25712 12.1791 7.43122 12.0122L12.1539 7.28233C12.3207 7.11548 12.4223 6.87608 12.4223 6.62943Z" fill="#FB6340"/>
</svg>
