<svg width="15" height="14" viewBox="0 0 15 14" fill="none" xmlns="http://www.w3.org/2000/svg">
<path d="M11.0156 0.437567H3.97219C3.57287 0.438367 3.17762 0.517811 2.809 0.671363C2.44038 0.824916 2.10562 1.04957 1.82382 1.3325C1.54202 1.61543 1.31871 1.95109 1.16664 2.32032C1.01456 2.68955 0.936705 3.08512 0.937506 3.48444V3.49663C0.938306 3.89595 1.01775 4.2912 1.1713 4.65982C1.32485 5.02844 1.54951 5.36321 1.83244 5.645C2.11537 5.9268 2.45103 6.15011 2.82026 6.30219C3.18949 6.45426 3.58506 6.53212 3.98438 6.53132H11.0278C11.4271 6.53052 11.8224 6.45107 12.191 6.29752C12.5596 6.14397 12.8944 5.91931 13.1762 5.63639C13.458 5.35346 13.6813 5.0178 13.8334 4.64856C13.9854 4.27933 14.0633 3.88376 14.0625 3.48444V3.47225C14.0617 3.07293 13.9823 2.67768 13.8287 2.30906C13.6752 1.94044 13.4505 1.60568 13.1676 1.32388C12.8846 1.04208 12.549 0.818773 12.1798 0.666699C11.8105 0.514625 11.415 0.436766 11.0156 0.437567ZM3.98438 5.82819C3.52083 5.82819 3.06769 5.69073 2.68226 5.4332C2.29684 5.17566 1.99643 4.80962 1.81904 4.38136C1.64165 3.95309 1.59523 3.48184 1.68567 3.0272C1.7761 2.57256 1.99932 2.15494 2.3271 1.82716C2.65488 1.49938 3.07249 1.27616 3.52714 1.18573C3.98178 1.09529 4.45303 1.14171 4.8813 1.3191C5.30956 1.49649 5.6756 1.7969 5.93314 2.18232C6.19067 2.56775 6.32813 3.02089 6.32813 3.48444C6.32813 4.10604 6.0812 4.70219 5.64166 5.14172C5.20212 5.58126 4.60598 5.82819 3.98438 5.82819Z" fill="black" fill-opacity="0.6"/>
<path d="M11.0278 7.46888H3.98438C3.58506 7.46808 3.18949 7.54594 2.82026 7.69801C2.45103 7.85008 2.11537 8.07339 1.83244 8.35519C1.54951 8.63699 1.32485 8.97175 1.1713 9.34037C1.01775 9.70899 0.938306 10.1042 0.937506 10.5036V10.5158C0.936705 10.9151 1.01456 11.3106 1.16664 11.6799C1.31871 12.0491 1.54202 12.3848 1.82382 12.6677C2.10562 12.9506 2.44038 13.1753 2.809 13.3288C3.17762 13.4824 3.57287 13.5618 3.97219 13.5626H11.0156C11.415 13.5634 11.8105 13.4856 12.1798 13.3335C12.549 13.1814 12.8846 12.9581 13.1676 12.6763C13.4505 12.3945 13.6752 12.0598 13.8287 11.6911C13.9823 11.3225 14.0617 10.9273 14.0625 10.5279V10.5158C14.0633 10.1164 13.9854 9.72086 13.8334 9.35163C13.6813 8.9824 13.458 8.64674 13.1762 8.36381C12.8944 8.08088 12.5596 7.85623 12.191 7.70267C11.8224 7.54912 11.4271 7.46968 11.0278 7.46888ZM11.0156 12.8595C10.5521 12.8595 10.0989 12.722 9.71351 12.4645C9.32808 12.207 9.02768 11.8409 8.85029 11.4127C8.67289 10.9844 8.62648 10.5132 8.71692 10.0585C8.80735 9.60387 9.03057 9.18625 9.35835 8.85847C9.68613 8.53069 10.1037 8.30747 10.5584 8.21704C11.013 8.1266 11.4843 8.17302 11.9125 8.35041C12.3408 8.5278 12.7069 8.82821 12.9644 9.21364C13.2219 9.59906 13.3594 10.0522 13.3594 10.5158C13.3594 11.1374 13.1125 11.7335 12.6729 12.173C12.2334 12.6126 11.6372 12.8595 11.0156 12.8595Z" fill="black" fill-opacity="0.6"/>
</svg>
