<svg width="15" height="14" viewBox="0 0 15 14" fill="none" xmlns="http://www.w3.org/2000/svg">
<path d="M14.6953 5.89844C14.4844 4.60937 13.8281 3.64844 12.7969 3.13281C12.1641 2.82812 11.5078 2.6875 10.8047 2.6875C9.84375 2.6875 8.95312 2.96875 8.15625 3.22656C7.54687 3.41406 7.03125 3.57812 6.60938 3.57812C6.25781 3.57812 6 3.46094 5.8125 3.22656C5.64844 3.01562 5.76562 2.6875 5.88281 2.28906C6.02344 1.79687 6.21094 1.16406 5.8125 0.648437C5.57812 0.34375 5.17969 0.179688 4.71094 0.179688C4.24219 0.179688 3.75 0.34375 3.35156 0.601562C1.40625 1.9375 0.234375 4.16406 0.234375 6.55469C0.234375 10.5859 3.51562 13.8672 7.54687 13.8672C10.8047 13.8672 13.6875 11.6875 14.5781 8.54687C14.6484 8.21875 14.8828 7.09375 14.6953 5.89844ZM2.34375 6.0625C2.34375 5.54687 2.76562 5.125 3.28125 5.125C3.79687 5.125 4.21875 5.54687 4.21875 6.0625C4.21875 6.57812 3.79687 7 3.28125 7C2.76562 7 2.34375 6.57812 2.34375 6.0625ZM4.21875 10.2812C3.70312 10.2812 3.28125 9.85937 3.28125 9.34375C3.28125 8.82812 3.70312 8.40625 4.21875 8.40625C4.73437 8.40625 5.15625 8.82812 5.15625 9.34375C5.15625 9.85937 4.73437 10.2812 4.21875 10.2812ZM7.5 11.6875C6.98437 11.6875 6.5625 11.2656 6.5625 10.75C6.5625 10.2344 6.98437 9.8125 7.5 9.8125C8.01562 9.8125 8.4375 10.2344 8.4375 10.75C8.4375 11.2656 8.01562 11.6875 7.5 11.6875ZM10.7812 7.70312C9.86719 7.70312 9.14062 6.97656 9.14062 6.0625C9.14062 5.14844 9.86719 4.42187 10.7812 4.42187C11.6953 4.42187 12.4219 5.14844 12.4219 6.0625C12.4219 6.97656 11.6953 7.70312 10.7812 7.70312Z" fill="black" fill-opacity="0.6"/>
</svg>
