<svg width="10" height="10" viewBox="0 0 10 10" fill="none" xmlns="http://www.w3.org/2000/svg">
<path d="M9.71178 4.64286C9.71178 4.28795 9.42383 4 9.06892 4H6.2832V1.21429C6.2832 0.859374 5.99526 0.571428 5.64035 0.571428H4.35463C3.99972 0.571428 3.71177 0.859374 3.71177 1.21429V4H0.92606C0.57115 4 0.283203 4.28795 0.283203 4.64286V5.92857C0.283203 6.28348 0.57115 6.57143 0.92606 6.57143H3.71177V9.35714C3.71177 9.71205 3.99972 10 4.35463 10H5.64035C5.99526 10 6.2832 9.71205 6.2832 9.35714V6.57143H9.06892C9.42383 6.57143 9.71178 6.28348 9.71178 5.92857V4.64286Z" fill="white"/>
</svg>
