<svg width="15" height="15" viewBox="0 0 15 15" fill="none" xmlns="http://www.w3.org/2000/svg">
<path d="M10.3867 7.09167C10.3867 9.02136 8.81641 10.5917 6.88672 10.5917C4.95703 10.5917 3.38672 9.02136 3.38672 7.09167C3.38672 5.16199 4.95703 3.59167 6.88672 3.59167C8.81641 3.59167 10.3867 5.16199 10.3867 7.09167ZM14.3867 13.5917C14.3867 13.326 14.2773 13.0682 14.0977 12.8885L11.418 10.2089C12.0508 9.2948 12.3867 8.20105 12.3867 7.09167C12.3867 4.05261 9.92578 1.59167 6.88672 1.59167C3.84766 1.59167 1.38672 4.05261 1.38672 7.09167C1.38672 10.1307 3.84766 12.5917 6.88672 12.5917C7.99609 12.5917 9.08984 12.2557 10.0039 11.6229L12.6836 14.2948C12.8633 14.4823 13.1211 14.5917 13.3867 14.5917C13.9336 14.5917 14.3867 14.1385 14.3867 13.5917Z" fill="black" fill-opacity="0.6"/>
</svg>
